# xmcd
#
# Track frame offsets:
#	150
#	17465
#	34797
#	47954
#	89375
#	114162
#	134815
#	149216
#	182189
#
# Disc length: 2708 seconds
#
# Revision: 1
# Processed by: cddbd v1.5.2PL0 Copyright (c) Steve Scherf et al.
# Submitted via: audiograbber 1.83.01
#
DISCID=820a9209
DTITLE=Grateful Dead - 80-10-02 Warfield Theatre, San Francisco CA
DYEAR=1900
DGENRE=
TTITLE0=Dark Hollow
TTITLE1=Iko Iko
TTITLE2=The Race Is On
TTITLE3=To Lay Me Down
TTITLE4=Cassidy
TTITLE5=Jack-A-Roe
TTITLE6=On The Road Again
TTITLE7=Bird Song
TTITLE8=Ripple
EXTD=
EXTT0=
EXTT1=
EXTT2=
EXTT3=
EXTT4=
EXTT5=
EXTT6=
EXTT7=
EXTT8=
PLAYORDER=
